<?xml version="1.0" encoding="utf-8"?>
<!-- Generator: Adobe Illustrator 24.3.0, SVG Export Plug-In . SVG Version: 6.00 Build 0)  -->
<svg version="1.1" id="Ebene_1" xmlns="http://www.w3.org/2000/svg" xmlns:xlink="http://www.w3.org/1999/xlink" x="0px" y="0px"
	 viewBox="0 0 841.89 595.28" style="enable-background:new 0 0 841.89 595.28;" xml:space="preserve">
<style type="text/css">
	.st0{fill:#141414;}
	.st1{fill:#DADADA;}
	.st2{fill:#E03718;}
</style>
<g>
	<circle class="st0" cx="420.94" cy="297.64" r="297.64"/>
	<path class="st1" d="M573.33,228.66c-0.57-2.07-1.25-4.1-2.03-6.07c-9.05-23.04-31.49-39.36-57.75-39.36H331.3
		c-0.98-0.05-1.97-0.08-2.96-0.08c-26.25,0-48.71,16.31-57.75,39.36c-0.79,1.97-1.46,4-2.03,6.07
		c-13.04,39.25-54.52,172.68-2.25,180.24c3.35,0.48,6.49,0.69,9.44,0.67c34.65,1.65,60.68-11.63,87.11-87.98
		c7.25,0.34,16.59-1.57,27.51-8.94h61.14c11.03,7.45,20.45,9.33,27.72,8.96c26.82,77.54,53.22,90.11,88.63,88.02
		c2.45-0.06,5.01-0.26,7.71-0.65C627.85,401.34,586.37,267.91,573.33,228.66z"/>
	<circle class="st0" cx="514.09" cy="267.38" r="10.79"/>
	<circle class="st0" cx="514.09" cy="224.23" r="10.79"/>
	<circle class="st0" cx="492.51" cy="245.8" r="10.79"/>
	<circle class="st2" cx="535.66" cy="245.8" r="10.79"/>
	<path class="st2" d="M335.55,234.26l-4.84,5.17c-1.28,1.37-3.46,1.37-4.74,0l-4.84-5.17c-0.56-0.6-0.88-1.39-0.88-2.22v-15.97
		c0-1.79,1.45-3.25,3.25-3.25h9.67c1.79,0,3.25,1.45,3.25,3.25v15.97C336.43,232.87,336.11,233.66,335.55,234.26z"/>
	<path class="st0" d="M333.18,277.56h-9.67c-1.79,0-3.25-1.45-3.25-3.25v-15.97c0-0.82,0.31-1.62,0.88-2.22l4.84-5.17
		c1.28-1.37,3.46-1.37,4.74,0l4.84,5.17c0.56,0.6,0.88,1.39,0.88,2.22v15.97C336.43,276.1,334.97,277.56,333.18,277.56z"/>
	<path class="st0" d="M360.71,238.58v11.45c0,1.79-1.45,3.25-3.25,3.25h-15.97c-0.82,0-1.62-0.31-2.22-0.88l-5.17-4.84
		c-1.37-1.28-1.37-3.46,0-4.74l5.17-4.84c0.6-0.56,1.39-0.88,2.22-0.88h17.75C360.05,237.11,360.71,237.77,360.71,238.58z"/>
	<path class="st0" d="M317.41,237.99l5.17,4.84c1.37,1.28,1.37,3.46,0,4.74l-5.17,4.84c-0.6,0.56-1.39,0.88-2.22,0.88h-15.97
		c-1.79,0-3.25-1.45-3.25-3.25v-9.67c0-1.79,1.45-3.25,3.25-3.25h15.97C316.02,237.11,316.81,237.42,317.41,237.99z"/>
	<circle class="st0" cx="455.29" cy="278.17" r="15.66"/>
	<circle class="st2" cx="385.98" cy="278.17" r="15.66"/>
</g>
</svg>
