<?xml version="1.0" encoding="utf-8"?>
<!-- Generator: Adobe Illustrator 24.3.0, SVG Export Plug-In . SVG Version: 6.00 Build 0)  -->
<svg version="1.1" id="Ebene_1" xmlns="http://www.w3.org/2000/svg" xmlns:xlink="http://www.w3.org/1999/xlink" x="0px" y="0px"
	 viewBox="0 0 841.89 595.28" style="enable-background:new 0 0 841.89 595.28;" xml:space="preserve">
<style type="text/css">
	.st0{fill:#1C3560;}
	.st1{fill:#1F497E;}
	.st2{fill:#6291C8;}
	.st3{fill:#343434;}
	.st4{fill:#1B1B1B;}
	.st5{fill:#DADADA;}
	.st6{fill:#80BC49;}
	.st7{fill:#E03718;}
	.st8{fill:#F3922B;}
	.st9{fill:#FFFFFF;}
</style>
<path class="st0" d="M748.98,100.43v342.5c0,1.94-1.58,3.52-3.52,3.52H114.98c-1.94,0-3.52-1.58-3.52-3.52v-342.5
	c0-1.96,1.58-3.52,3.52-3.52h630.47C747.4,96.91,748.98,98.47,748.98,100.43z"/>
<rect x="661.4" y="122.04" class="st1" width="87.58" height="324.41"/>
<rect x="111.46" y="96.9" class="st2" width="637.51" height="33.03"/>
<path class="st3" d="M771.4,53.85H89.04c-12.21,0-22.12,9.9-22.12,22.12v385.32c0,15.59,12.64,28.21,28.21,28.21H765.3
	c15.57,0,28.2-12.62,28.2-28.21V75.96C793.5,63.75,783.6,53.85,771.4,53.85z M748.98,442.93c0,1.94-1.58,3.52-3.52,3.52H114.98
	c-1.94,0-3.52-1.58-3.52-3.52v-342.5c0-1.96,1.58-3.52,3.52-3.52h630.47c1.94,0,3.52,1.57,3.52,3.52V442.93z"/>
<path class="st4" d="M846.09,489.5H14.33c-2.51,0-4.55,2.04-4.55,4.55v0.78c0,26.77,21.7,48.47,48.47,48.47h743.92
	c26.77,0,48.47-21.7,48.47-48.47v-0.78C850.65,491.54,848.61,489.5,846.09,489.5z"/>
<rect x="166.89" y="156.74" class="st5" width="7.42" height="268.06"/>
<rect x="181.18" y="184.2" class="st2" width="47.5" height="11.13"/>
<rect x="243.06" y="184.2" class="st6" width="28.85" height="11.13"/>
<rect x="190.83" y="204.23" class="st2" width="75.7" height="11.13"/>
<rect x="190.83" y="224.27" class="st2" width="124.96" height="11.13"/>
<rect x="190.83" y="244.31" class="st2" width="52.23" height="11.13"/>
<rect x="181.64" y="282.76" class="st1" width="466.96" height="14.38"/>
<rect x="190.83" y="264.35" class="st2" width="104.83" height="11.13"/>
<rect x="190.83" y="284.39" class="st2" width="94.07" height="11.13"/>
<rect x="181.64" y="304.43" class="st7" width="61.6" height="11.13"/>
<rect x="190.83" y="324.46" class="st2" width="68.46" height="11.13"/>
<rect x="190.83" y="344.5" class="st2" width="44.34" height="11.13"/>
<rect x="190.83" y="367.56" class="st2" width="34.23" height="11.13"/>
<rect x="181.64" y="390.61" class="st2" width="65.77" height="11.13"/>
<rect x="239.44" y="367.56" class="st6" width="127.65" height="11.13"/>
<rect x="249.69" y="344.5" class="st5" width="47.45" height="11.13"/>
<rect x="311.52" y="344.5" class="st2" width="76.16" height="11.13"/>
<rect x="402.06" y="344.5" class="st7" width="20.13" height="11.13"/>
<rect x="273.67" y="324.46" class="st5" width="157.43" height="11.13"/>
<rect x="445.48" y="324.46" class="st8" width="74.22" height="11.13"/>
<rect x="299.28" y="284.39" class="st2" width="94.07" height="11.13"/>
<rect x="310.59" y="264.35" class="st5" width="38.04" height="11.13"/>
<rect x="363.01" y="264.35" class="st7" width="104.09" height="11.13"/>
<rect x="257.44" y="244.31" class="st1" width="96.85" height="11.13"/>
<rect x="330.17" y="224.27" class="st6" width="36.92" height="11.13"/>
<rect x="381.47" y="224.27" class="st5" width="54.83" height="11.13"/>
<rect x="280.91" y="204.23" class="st5" width="41.75" height="11.13"/>
<rect x="337.03" y="204.23" class="st8" width="76.81" height="11.13"/>
<rect x="190.83" y="413.66" class="st2" width="105.48" height="11.13"/>
<rect x="311.24" y="413.66" class="st5" width="38.04" height="11.13"/>
<rect x="363.66" y="413.66" class="st7" width="104.09" height="11.13"/>
<rect x="714.74" y="104.79" class="st7" width="25.6" height="17.26"/>
<rect x="681.67" y="104.79" class="st5" width="25.6" height="17.26"/>
<rect x="648.6" y="104.79" class="st5" width="25.6" height="17.26"/>
<rect x="120.37" y="104.79" class="st5" width="25.6" height="17.26"/>
<rect x="153.44" y="104.79" class="st5" width="25.6" height="17.26"/>
<rect x="186.24" y="104.79" class="st9" width="436.71" height="17.26"/>
<rect x="127.56" y="156.74" class="st5" width="25.6" height="11.13"/>
<rect x="407.72" y="293.2" class="st5" width="12.71" height="2.32"/>
<circle class="st7" cx="147.6" cy="331.47" r="3.62"/>
</svg>
