<?xml version="1.0" encoding="utf-8"?>
<!-- Generator: Adobe Illustrator 24.3.0, SVG Export Plug-In . SVG Version: 6.00 Build 0)  -->
<svg version="1.1" id="Ebene_1" xmlns="http://www.w3.org/2000/svg" xmlns:xlink="http://www.w3.org/1999/xlink" x="0px" y="0px"
	 viewBox="0 0 841.89 595.28" style="enable-background:new 0 0 841.89 595.28;" xml:space="preserve">
<style type="text/css">
	.st0{fill:#141414;}
	.st1{fill:#DADADA;}
	.st2{fill:#E03718;}
</style>
<g>
	<circle class="st0" cx="420.94" cy="297.64" r="297.64"/>
	<polygon class="st1" points="429.02,456.98 435.65,464.85 445.88,463.85 440.45,472.58 444.57,482 434.58,479.54 426.89,486.36 
		426.15,476.1 417.28,470.9 426.81,467.03 	"/>
	<polygon class="st2" points="523.1,141.83 529.72,149.69 539.96,148.69 534.53,157.43 538.64,166.85 528.66,164.39 520.97,171.21 
		520.23,160.95 511.36,155.75 520.89,151.87 	"/>
	<polygon class="st2" points="467.31,225.17 481.39,260.83 518.04,249.6 498.94,282.84 530.57,304.49 492.67,310.28 495.46,348.51 
		467.31,322.5 439.16,348.51 441.95,310.28 404.05,304.49 435.68,282.84 416.58,249.6 453.23,260.83 	"/>
	<polygon class="st1" points="365.19,148.89 365.4,167.18 383.66,168.41 369.49,179.98 379.91,195.01 362.03,191.15 356.78,208.68 
		348.65,192.29 331.67,199.11 339.41,182.53 323.5,173.51 341.28,169.23 338.41,151.16 352.85,162.4 	"/>
	<polygon class="st1" points="328.49,352.5 328.71,370.79 346.96,372.01 332.8,383.59 343.22,398.62 325.34,394.76 320.09,412.28 
		311.95,395.9 294.98,402.71 302.72,386.14 286.81,377.12 304.59,372.84 301.72,354.77 316.16,366 	"/>
	<polygon class="st2" points="266.66,242.5 265.68,251.41 274.48,253.08 266.91,257.87 271.09,265.79 262.63,262.85 259.04,271.06 
		256.05,262.61 247.4,264.92 252.15,257.33 244.95,252 253.84,250.97 253.52,242.02 259.87,248.34 	"/>
	<polygon class="st1" points="571.13,383.04 570.15,391.95 578.95,393.62 571.38,398.41 575.56,406.33 567.1,403.39 563.51,411.6 
		560.52,403.15 551.87,405.46 556.61,397.87 549.41,392.54 558.31,391.51 557.99,382.56 564.34,388.88 	"/>
</g>
</svg>
