<?xml version="1.0" encoding="utf-8"?>
<!-- Generator: Adobe Illustrator 24.3.0, SVG Export Plug-In . SVG Version: 6.00 Build 0)  -->
<svg version="1.1" id="Ebene_1" xmlns="http://www.w3.org/2000/svg" xmlns:xlink="http://www.w3.org/1999/xlink" x="0px" y="0px"
	 viewBox="0 0 841.89 595.28" style="enable-background:new 0 0 841.89 595.28;" xml:space="preserve">
<style type="text/css">
	.st0{fill:#141414;}
	.st1{fill:#DADADA;}
	.st2{fill:#E03718;}
</style>
<g>
	<circle class="st0" cx="420.94" cy="297.64" r="297.64"/>
	<path class="st1" d="M562.38,206.91H279.51c-5.15,0-9.32,4.17-9.32,9.32v155.77c0,5.15,4.17,9.32,9.32,9.32h282.88
		c5.15,0,9.32-4.17,9.32-9.32V216.24C571.71,211.09,567.53,206.91,562.38,206.91z"/>
	<path class="st1" d="M453.51,386.66h-65.14l-18.54,33.75c-1.26,2.3,0.4,5.12,3.03,5.12h96.16c2.63,0,4.29-2.81,3.03-5.12
		L453.51,386.66z"/>
	<path class="st2" d="M320.96,251.61l-21.31-21.31h15.97c2.37,0,4.3-1.92,4.3-4.3s-1.92-4.3-4.3-4.3h-26.34c-0.02,0-0.03,0-0.05,0
		c-0.27,0-0.53,0.03-0.79,0.08c-0.13,0.03-0.25,0.07-0.38,0.11c-0.14,0.04-0.29,0.07-0.42,0.13c-0.14,0.06-0.28,0.14-0.41,0.22
		c-0.11,0.06-0.22,0.11-0.33,0.18c-0.23,0.15-0.44,0.32-0.63,0.51c-0.01,0.01-0.02,0.01-0.02,0.02c-0.01,0.01-0.01,0.02-0.02,0.03
		c-0.19,0.19-0.36,0.4-0.51,0.63c-0.07,0.11-0.12,0.23-0.19,0.34c-0.07,0.13-0.15,0.26-0.21,0.4c-0.06,0.15-0.1,0.3-0.14,0.45
		c-0.03,0.12-0.08,0.23-0.11,0.36c-0.06,0.28-0.08,0.56-0.08,0.84v26.34c0,2.37,1.92,4.3,4.3,4.3s4.3-1.92,4.3-4.3v-15.97
		l21.31,21.31c0.84,0.84,1.94,1.26,3.04,1.26c1.1,0,2.2-0.42,3.04-1.26C322.64,256.01,322.64,253.29,320.96,251.61z"/>
	<path class="st2" d="M320.96,330.55c-1.68-1.68-4.4-1.68-6.08,0l-21.31,21.31v-15.97c0-2.37-1.92-4.3-4.3-4.3s-4.3,1.92-4.3,4.3
		v26.34c0,0.28,0.03,0.56,0.08,0.84c0.02,0.12,0.07,0.24,0.11,0.36c0.04,0.15,0.08,0.3,0.14,0.44c0.06,0.14,0.14,0.27,0.21,0.41
		c0.06,0.11,0.11,0.23,0.18,0.33c0.31,0.47,0.72,0.88,1.19,1.19c0.1,0.07,0.22,0.12,0.32,0.18c0.14,0.08,0.27,0.16,0.41,0.22
		c0.14,0.06,0.29,0.09,0.43,0.14c0.12,0.04,0.24,0.08,0.37,0.11c0.28,0.06,0.56,0.08,0.84,0.08h26.34c2.37,0,4.3-1.92,4.3-4.3
		s-1.92-4.3-4.3-4.3h-15.97l21.31-21.31C322.64,334.95,322.64,332.23,320.96,330.55z"/>
	<path class="st2" d="M556.82,225.17c-0.03-0.13-0.07-0.24-0.11-0.37c-0.04-0.15-0.08-0.29-0.14-0.44
		c-0.06-0.14-0.14-0.28-0.22-0.41c-0.06-0.11-0.11-0.22-0.18-0.33c-0.31-0.47-0.72-0.88-1.19-1.19c-0.11-0.07-0.22-0.12-0.33-0.18
		c-0.13-0.07-0.26-0.16-0.41-0.21c-0.14-0.06-0.28-0.09-0.43-0.13c-0.12-0.04-0.24-0.09-0.37-0.11c-0.26-0.05-0.53-0.08-0.79-0.08
		c-0.02,0-0.03,0-0.05,0h-26.34c-2.37,0-4.3,1.92-4.3,4.3s1.92,4.3,4.3,4.3h15.97l-21.31,21.31c-1.68,1.68-1.68,4.4,0,6.08
		c0.84,0.84,1.94,1.26,3.04,1.26s2.2-0.42,3.04-1.26l21.31-21.31v15.97c0,2.37,1.92,4.3,4.3,4.3c2.37,0,4.3-1.92,4.3-4.3v-26.34
		C556.91,225.73,556.88,225.44,556.82,225.17z"/>
	<path class="st2" d="M556.58,363.87c0.06-0.14,0.09-0.29,0.13-0.43c0.04-0.12,0.08-0.24,0.11-0.37c0.06-0.28,0.08-0.56,0.08-0.84
		v-26.34c0-2.37-1.92-4.3-4.3-4.3c-2.37,0-4.3,1.92-4.3,4.3v15.97l-21.31-21.31c-1.68-1.68-4.4-1.68-6.08,0
		c-1.68,1.68-1.68,4.4,0,6.08l21.31,21.31h-15.97c-2.37,0-4.3,1.92-4.3,4.3s1.92,4.3,4.3,4.3h26.34c0.28,0,0.56-0.03,0.84-0.08
		c0.13-0.03,0.25-0.07,0.37-0.11c0.15-0.04,0.29-0.08,0.43-0.13c0.15-0.06,0.28-0.14,0.42-0.22c0.11-0.06,0.22-0.11,0.32-0.18
		c0.47-0.31,0.88-0.72,1.19-1.19c0.07-0.1,0.11-0.21,0.17-0.32C556.43,364.16,556.52,364.02,556.58,363.87z"/>
</g>
</svg>
