<?xml version="1.0" encoding="utf-8"?>
<!-- Generator: Adobe Illustrator 24.3.0, SVG Export Plug-In . SVG Version: 6.00 Build 0)  -->
<svg version="1.1" id="Ebene_1" xmlns="http://www.w3.org/2000/svg" xmlns:xlink="http://www.w3.org/1999/xlink" x="0px" y="0px"
	 viewBox="0 0 841.89 595.28" style="enable-background:new 0 0 841.89 595.28;" xml:space="preserve">
<style type="text/css">
	.st0{fill:#141414;}
	.st1{fill:#DADADA;}
	.st2{fill:#E03718;}
</style>
<g>
	<circle class="st0" cx="426.55" cy="297.64" r="297.64"/>
	<path class="st1" d="M325.56,245.36h-51.21c-3.91,0-7.08,3.17-7.08,7.08v90.4c0,3.91,3.17,7.08,7.08,7.08h51.21
		c1.88,0,3.68,0.75,5,2.07l29.18,29.18c4.46,4.46,12.08,1.3,12.08-5V219.12c0-6.3-7.62-9.46-12.08-5l-29.18,29.18
		C329.24,244.62,327.44,245.36,325.56,245.36z"/>
	<g>
		<path class="st2" d="M438.65,194.63c-1.6-1.45-3.68-2.18-5.83-2.08c-2.16,0.11-4.14,1.05-5.59,2.65c-1.45,1.6-2.19,3.67-2.08,5.83
			s1.05,4.14,2.65,5.59c25.68,23.24,40.42,56.41,40.42,91.02s-14.73,67.78-40.42,91.02c-1.6,1.45-2.54,3.43-2.65,5.59
			c-0.11,2.16,0.63,4.23,2.08,5.83c1.53,1.69,3.71,2.66,6,2.66c2.01,0,3.93-0.74,5.42-2.09c29.07-26.3,45.74-63.84,45.74-103.01
			C484.38,258.47,467.71,220.93,438.65,194.63z"/>
		<path class="st2" d="M480.8,166.53c-1.58-1.47-3.65-2.23-5.8-2.15c-2.16,0.08-4.15,1-5.62,2.58c-3.03,3.27-2.83,8.4,0.44,11.43
			c33.12,30.68,52.12,74.14,52.12,119.25c0,45.1-19,88.57-52.12,119.25c-1.58,1.47-2.5,3.46-2.58,5.62
			c-0.08,2.16,0.68,4.22,2.15,5.8c1.52,1.65,3.69,2.59,5.93,2.59c2.04,0,3.99-0.76,5.49-2.15c36.42-33.73,57.3-81.51,57.3-131.11
			C538.11,248.04,517.22,200.26,480.8,166.53z"/>
		<path class="st2" d="M523.8,137.54c-1.57-1.48-3.62-2.27-5.79-2.19c-2.16,0.07-4.16,0.97-5.64,2.54
			c-1.48,1.57-2.26,3.63-2.19,5.79s0.97,4.16,2.54,5.64c41.38,38.9,64.16,91.57,64.16,148.31c0,56.75-22.79,109.42-64.16,148.32
			c-1.57,1.48-2.48,3.48-2.54,5.64s0.71,4.21,2.19,5.79c1.52,1.62,3.67,2.55,5.89,2.55c2.07,0,4.03-0.78,5.54-2.19
			c44.66-41.99,69.26-98.84,69.26-160.1C593.06,236.38,568.46,179.53,523.8,137.54z"/>
	</g>
</g>
</svg>
